<svg width="27" height="35" viewBox="0 0 27 35" fill="none" xmlns="http://www.w3.org/2000/svg">
<path d="M0 35C0 27.6362 5.96953 21.6667 13.3333 21.6667C20.6972 21.6667 26.6667 27.6362 26.6667 35H23.3333C23.3333 29.4772 18.8562 25 13.3333 25C7.81048 25 3.33333 29.4772 3.33333 35H0ZM13.3333 20C7.80833 20 3.33333 15.525 3.33333 10C3.33333 4.475 7.80833 0 13.3333 0C18.8583 0 23.3333 4.475 23.3333 10C23.3333 15.525 18.8583 20 13.3333 20ZM13.3333 16.6667C17.0167 16.6667 20 13.6833 20 10C20 6.31667 17.0167 3.33333 13.3333 3.33333C9.65 3.33333 6.66667 6.31667 6.66667 10C6.66667 13.6833 9.65 16.6667 13.3333 16.6667Z" fill="black"/>
</svg>
